<svg viewBox="0 0 24 24" xmlns="http://www.w3.org/2000/svg" xmlns:xlink="http://www.w3.org/1999/xlink" fill="none" customFrame="#000000">
	<path id="Vector 10" d="M12 0C5.37 0 0 4.99636 0 10.4182C0 13.6036 1.86 16.9091 4.72 18.6982L3 24L8.85 20.3782C9.86 20.5964 10.91 20.7273 12 20.7273C18.63 20.7273 24 15.84 24 10.4182C24 4.99636 18.63 0 12 0ZM6.55 13.9636C6.02 14.4764 5.31 14.7273 4.41 14.7273C3.89 14.7273 3.44 14.6618 3.05 14.5418C2.66 14.4218 2.3 14.2582 1.96 14.0727L1.96 12.0655L2.12 12.0655C2.46 12.4255 2.83 12.6982 3.24 12.8945C3.65 13.0909 4.04 13.1782 4.43 13.1782C4.53 13.1782 4.66 13.1673 4.81 13.1345C4.97 13.1127 5.1 13.0691 5.19 13.0145C5.31 12.9491 5.41 12.8618 5.49 12.7418C5.57 12.6327 5.61 12.48 5.61 12.2836C5.61 12.0764 5.54 11.9018 5.41 11.7709C5.28 11.64 5.12 11.5418 4.93 11.4873C4.7 11.4109 4.46 11.3455 4.2 11.2691C3.94 11.2036 3.69 11.1164 3.47 11.0182C2.95 10.7891 2.57 10.4836 2.35 10.0909C2.12 9.69818 2.01 9.21818 2.01 8.62909C2.01 7.84364 2.28 7.2 2.81 6.72C3.34 6.22909 4.01 5.98909 4.81 5.98909C5.21 5.98909 5.61 6.04364 6.01 6.14182C6.41 6.24 6.76 6.38182 7.07 6.55636L7.07 8.47636L6.93 8.47636C6.68 8.22545 6.37 7.99636 6.01 7.81091C5.65 7.62545 5.28 7.52727 4.9 7.52727C4.75 7.52727 4.62 7.53818 4.5 7.57091C4.38 7.60364 4.26 7.64727 4.13 7.72364C4.02 7.78909 3.93 7.87636 3.86 7.99636C3.78 8.11636 3.74 8.24727 3.74 8.38909C3.74 8.60727 3.8 8.77091 3.92 8.90182C4.04 9.03273 4.28 9.14182 4.63 9.24C4.86 9.30546 5.07 9.37091 5.29 9.42546C5.49 9.49091 5.72 9.57818 5.96 9.67636C6.43 9.88364 6.78 10.1673 7 10.5273C7.23 10.8873 7.34 11.3564 7.34 11.9345C7.34 12.7855 7.08 13.4509 6.55 13.9636ZM15.33 14.5745L13.65 14.5745L13.65 8.98909L12.42 12.5891L11.26 12.5891L10.03 8.98909L10.03 14.5745L8.44 14.5745L8.44 6.15273L10.39 6.15273L11.89 10.3091L13.38 6.15273L15.33 6.15273L15.33 14.5745L15.33 14.5745ZM21.18 13.9636C20.65 14.4764 19.94 14.7273 19.04 14.7273C18.52 14.7273 18.07 14.6618 17.68 14.5418C17.29 14.4218 16.93 14.2582 16.59 14.0727L16.59 12.0655L16.75 12.0655C17.09 12.4255 17.46 12.6982 17.87 12.8945C18.28 13.0909 18.67 13.1782 19.06 13.1782C19.16 13.1782 19.29 13.1673 19.44 13.1345C19.6 13.1127 19.73 13.0691 19.82 13.0145C19.94 12.9491 20.04 12.8618 20.12 12.7418C20.2 12.6327 20.24 12.48 20.24 12.2836C20.24 12.0764 20.17 11.9018 20.04 11.7709C19.91 11.64 19.75 11.5418 19.56 11.4873C19.33 11.4109 19.09 11.3455 18.83 11.2691C18.57 11.2036 18.32 11.1164 18.1 11.0182C17.58 10.7891 17.2 10.4836 16.98 10.0909C16.75 9.69818 16.64 9.21818 16.64 8.62909C16.64 7.84364 16.91 7.2 17.44 6.72C17.97 6.22909 18.64 5.98909 19.44 5.98909C19.84 5.98909 20.24 6.04364 20.64 6.14182C21.04 6.24 21.39 6.38182 21.7 6.55636L21.7 8.47636L21.55 8.47636C21.3 8.20364 20.99 7.98545 20.63 7.8C20.27 7.62545 19.9 7.52727 19.52 7.52727C19.37 7.52727 19.24 7.53818 19.12 7.57091C19 7.60364 18.88 7.64727 18.75 7.72364C18.64 7.78909 18.55 7.87636 18.48 7.99636C18.4 8.11636 18.36 8.24727 18.36 8.4C18.36 8.61818 18.42 8.78182 18.54 8.91273C18.66 9.04364 18.9 9.15273 19.25 9.25091C19.48 9.31637 19.69 9.38182 19.91 9.43636C20.12 9.50182 20.34 9.57818 20.58 9.68727C21.05 9.89455 21.4 10.1782 21.62 10.5382C21.85 10.8982 21.96 11.3673 21.96 11.9455C21.97 12.7855 21.7 13.4509 21.18 13.9636Z" fill="rgb(97,186,68)" fill-rule="nonzero" />
</svg>
