<svg viewBox="0 0 24 24" xmlns="http://www.w3.org/2000/svg" xmlns:xlink="http://www.w3.org/1999/xlink" fill="none" customFrame="#000000">
	<g id="Group 70">
		<path id="Vector 7" d="M12 24C10.7843 24 9.56428 23.7969 8.37366 23.3965C8.00025 23.2709 7.79939 22.8664 7.92502 22.493C8.05055 22.1196 8.45494 21.9186 8.82848 22.0444C9.87225 22.3955 10.9393 22.5734 12 22.5734C17.8302 22.5734 22.5734 17.788 22.5734 11.906C22.5735 6.12764 17.8091 1.42659 11.953 1.42659C6.14878 1.42659 1.42659 6.12764 1.42659 11.906C1.42659 13.9344 1.98858 15.8978 3.05184 17.5844L3.32902 18.0001C3.44348 18.172 3.47803 18.385 3.42347 18.5842L2.66587 21.351L5.5215 20.6205C5.90325 20.5227 6.29166 20.7531 6.38934 21.1347C6.48698 21.5164 6.25673 21.9049 5.87512 22.0026L1.83075 23.0372C1.58452 23.1002 1.32352 23.0274 1.14534 22.8462C0.967172 22.665 0.898828 22.4028 0.965953 22.1578L1.96172 18.521L1.85986 18.3682C1.85667 18.3634 1.85344 18.3585 1.8503 18.3534C0.639844 16.437 0 14.2074 0 11.906C0 8.71519 1.24383 5.72133 3.50236 3.47592C5.75686 1.23441 8.75799 0 11.9529 0C15.1571 0 18.1737 1.22686 20.4469 3.45464C22.7382 5.7 24 8.70141 24 11.9059C24 15.116 22.7426 18.1485 20.4594 20.4447C18.1799 22.7374 15.1755 24 12 24Z" fill="rgb(97,186,68)" fill-rule="nonzero" />
		<path id="Vector 8" d="M18.7133 16.5505L18.9305 15.8345C19 15.6306 18.9177 15.3616 18.7181 15.2399L15.564 13.4553C15.3644 13.3337 15.0997 13.364 14.9261 13.5592L13.4848 15.1165C13.372 15.212 13.2114 15.2509 13.0595 15.1858C12.532 14.9484 11.3747 14.4165 10.5144 13.5562L10.5145 13.556C10.5026 13.5443 10.491 13.5326 10.4792 13.5209C10.4675 13.509 10.4557 13.4975 10.4441 13.4856L10.4439 13.4857C9.54682 12.5886 9.05163 11.4681 8.81431 10.9406C8.7492 10.7887 8.78815 10.6281 8.88359 10.5153L10.4409 9.07405C10.6361 8.90042 10.6664 8.63567 10.5448 8.43613L8.76016 5.282C8.63862 5.08241 8.36951 5.0001 8.16556 5.06956L7.44963 5.28678C6.68163 5.50841 5.99187 6.038 5.58424 6.80624C5.08995 7.79146 4.92546 8.95883 5.46406 10.382C6.36813 12.7818 7.61187 14.4254 8.59334 15.4068C9.57476 16.3882 11.2183 17.6319 13.6181 18.5361C15.0413 19.0747 16.2086 18.9102 17.1939 18.4159C17.9621 18.0082 18.4917 17.3185 18.7133 16.5505Z" fill="rgb(123,197,99)" fill-rule="nonzero" />
		<path id="Vector 9" d="M15.328 19.5837C15.3279 19.5837 15.3279 19.5837 15.3278 19.5837C14.6931 19.5837 14.0329 19.4556 13.3655 19.2031C10.7337 18.2115 9.0432 16.8656 8.08878 15.9111C7.13431 14.9567 5.78834 13.2663 4.79642 10.6333C4.24568 9.17833 4.29612 7.78273 4.94656 6.4863C4.949 6.48148 4.95148 6.4766 4.95396 6.47182C5.43392 5.56722 6.26937 4.88622 7.24662 4.60277L7.94942 4.38949C8.06674 4.35119 8.19045 4.33179 8.31724 4.33179C8.74849 4.33179 9.15153 4.5536 9.36907 4.91069C9.37306 4.91726 9.3769 4.92391 9.38079 4.93062L11.161 8.07687C11.4551 8.57238 11.3551 9.20988 10.9212 9.60119L9.56074 10.8602C9.80449 11.3916 10.2427 12.2711 10.937 12.9701C10.9426 12.9754 10.9481 12.9808 10.9534 12.9864L11.0134 13.0464C11.0189 13.0517 11.0243 13.0572 11.0297 13.0628C11.7082 13.7363 12.629 14.2017 13.14 14.4387L14.3986 13.0788C14.6331 12.8187 14.9638 12.6698 15.3074 12.6698C15.524 12.6698 15.7365 12.7282 15.9229 12.8389L19.0692 14.6191C19.0759 14.6229 19.0826 14.6268 19.0891 14.6308C19.5593 14.9174 19.7816 15.5253 19.6103 16.0504L19.397 16.7533C19.1136 17.7306 18.4326 18.566 17.528 19.046C17.5232 19.0486 17.5184 19.051 17.5135 19.0534C16.8121 19.4053 16.0768 19.5837 15.328 19.5837ZM6.218 7.13355C5.75084 8.06956 5.72239 9.04966 6.13114 10.1294C7.08129 12.6514 8.39754 14.2022 9.09767 14.9023C9.79775 15.6024 11.3486 16.9188 13.8696 17.8685C14.376 18.0602 14.8663 18.1571 15.3279 18.1571L15.3281 18.1571C15.8575 18.1571 16.3607 18.0345 16.8664 17.782C17.4295 17.4807 17.8526 16.9602 18.0279 16.3526C18.0289 16.3495 18.0297 16.3464 18.0307 16.3433L18.2049 15.7691L15.3484 14.1529L14.0083 15.601C13.9886 15.6223 13.9675 15.6424 13.9453 15.6611C13.7393 15.8352 13.4799 15.9312 13.2148 15.9312C13.0644 15.9312 12.9175 15.901 12.7782 15.8412C12.7744 15.8396 12.7706 15.8379 12.7668 15.8362C12.2789 15.6167 10.983 15.0336 10.0099 14.0604C10.0062 14.0568 10.0027 14.0531 9.99922 14.0494L9.97779 14.0282C9.97578 14.0262 9.97372 14.0241 9.97175 14.0222L9.95051 14.0007C9.94681 13.9972 9.94315 13.9936 9.93954 13.9901C8.96539 13.0159 8.43242 11.8306 8.17629 11.2609L8.16383 11.2331C8.16209 11.2293 8.16045 11.2255 8.15876 11.2217C7.99128 10.8312 8.06033 10.3841 8.33895 10.0546C8.3577 10.0324 8.37781 10.0114 8.39909 9.99166L9.8472 8.65151L8.23095 5.79504L7.65673 5.96927C7.65369 5.97021 7.65054 5.97115 7.6474 5.97204C7.03971 6.14735 6.51921 6.5704 6.218 7.13355Z" fill="rgb(97,186,68)" fill-rule="nonzero" />
	</g>
</svg>
